<svg width="20" height="20" viewBox="0 0 20 20" fill="none" xmlns="http://www.w3.org/2000/svg">
<path d="M18.5438 12.7507L19.4964 13.0548C19.6274 12.6444 19.4809 12.1963 19.1327 11.9426C18.7846 11.6889 18.3131 11.6866 17.9625 11.937L18.5438 12.7507ZM8.83695 1.10498L9.53334 1.82265C9.84223 1.52292 9.92468 1.05916 9.73803 0.67133C9.55138 0.283497 9.13752 0.0585998 8.71056 0.113L8.83695 1.10498ZM17.9625 11.937C16.8822 12.7087 15.5606 13.1626 14.1301 13.1626V15.1626C15.9911 15.1626 17.7167 14.5705 19.125 13.5645L17.9625 11.937ZM14.1301 13.1626C10.4841 13.1626 7.52847 10.2069 7.52847 6.56094H5.52847C5.52847 11.3115 9.37956 15.1626 14.1301 15.1626V13.1626ZM7.52847 6.56094C7.52847 4.70181 8.29566 3.02363 9.53334 1.82265L8.14056 0.387313C6.53076 1.94938 5.52847 4.13899 5.52847 6.56094H7.52847ZM2 10.0162C2 5.95297 5.03632 2.59732 8.96334 2.09696L8.71056 0.113C3.7975 0.738991 0 4.93336 0 10.0162H2ZM9.98377 18C5.57445 18 2 14.4255 2 10.0162H0C0 15.5301 4.46988 20 9.98377 20V18ZM17.5911 12.4467C16.5627 15.6687 13.5442 18 9.98377 18V20C14.4395 20 18.2111 17.0818 19.4964 13.0548L17.5911 12.4467Z" fill="#25242A"/>
</svg>
